<svg xmlns="http://www.w3.org/2000/svg" xmlns:xlink="http://www.w3.org/1999/xlink" width="140" height="140" viewBox="0 0 140 140"><defs><style>.a{fill:#fff;}.b{fill:#26cd7a;}.c{filter:url(#a);}</style><filter id="a" x="0" y="0" width="140" height="140" filterUnits="userSpaceOnUse"><feOffset dy="3" input="SourceAlpha"/><feGaussianBlur stdDeviation="7" result="b"/><feFlood flood-color="#0a0e33" flood-opacity="0.059"/><feComposite operator="in" in2="b"/><feComposite in="SourceGraphic"/></filter></defs><g transform="translate(-110 -75)"><g class="c" transform="matrix(1, 0, 0, 1, 110, 75)"><circle class="a" cx="49" cy="49" r="49" transform="translate(21 18)"/></g><path class="b" d="M82.753,39.049a11.334,11.334,0,0,0-20.93-.186l-.31.73a2.073,2.073,0,0,0-.367-.034H40.181a2.049,2.049,0,0,0-2.058,1.873A2.022,2.022,0,0,0,40.139,43.6H51.688l-.005.023h1.166a1.785,1.785,0,0,1,1.8,1.738,1.754,1.754,0,0,1-1.588,1.765H43.5A2.049,2.049,0,0,0,41.446,49a2.022,2.022,0,0,0,2.017,2.171h6.6l-.011.051a2.037,2.037,0,0,1,.412,4.029H38.889a2.049,2.049,0,0,0-2.058,1.873A2.022,2.022,0,0,0,38.847,59.3h9.468l-.02.093v0a1.857,1.857,0,0,1,1.333,1.777v.3a1.865,1.865,0,0,1-1.865,1.865h-.316v.007H45.9a2.049,2.049,0,0,0-2.058,1.873,2.022,2.022,0,0,0,2.017,2.171h4.8A11.337,11.337,0,0,0,72.426,71.9L82.688,47.719A11.255,11.255,0,0,0,82.753,39.049Zm-26.011,29.2a5.655,5.655,0,0,0,1.606,6.234l-.22.032a8.128,8.128,0,0,1-3.47-10.188l4.3-10.12h0l.152-.055a18.038,18.038,0,0,1,4.242-.949C62.2,55.714,57.962,65,56.742,68.253ZM79.5,46.365,75,56.948a0,0,0,0,1,0,0,10.137,10.137,0,0,0-4.383-5.729c-3.18-1.9-7.039-1.639-9.831-1.038a0,0,0,0,1,0,0l4.228-9.961a7.81,7.81,0,0,1,4.3-4.21,7.911,7.911,0,0,1,2.966-.582A7.881,7.881,0,0,1,79.5,46.365Z" transform="translate(118.411 89.359)"/></g></svg>