<svg xmlns="http://www.w3.org/2000/svg" xmlns:xlink="http://www.w3.org/1999/xlink" width="62.746" height="60" viewBox="0 0 62.746 60"><defs><style>.a{fill:url(#a);}</style><linearGradient id="a" x1="0.187" x2="1.071" y2="1.135" gradientUnits="objectBoundingBox"><stop offset="0" stop-color="#26cd7a"/><stop offset="1" stop-color="#34baff"/></linearGradient></defs><g transform="translate(0)"><path class="a" d="M57.465,36.133a2.535,2.535,0,0,0-2.535,2.535V41.22A24.931,24.931,0,0,1,30,66.137h-.015A24.931,24.931,0,0,1,30,16.275h.015a24.775,24.775,0,0,1,10.133,2.158A2.535,2.535,0,1,0,42.21,13.8a29.81,29.81,0,0,0-12.193-2.6H30a30,30,0,0,0-.017,60H30A30,30,0,0,0,60,41.222V38.668A2.535,2.535,0,0,0,57.465,36.133Z" transform="translate(0 -11.206)"/></g><g transform="translate(19.226 2.762)"><g transform="translate(0 0)"><path class="a" d="M199.658,34.488a2.535,2.535,0,0,0-3.585,0l-28.42,28.42-6.447-6.447a2.535,2.535,0,0,0-3.584,3.585l8.24,8.24a2.535,2.535,0,0,0,3.585,0l30.212-30.212A2.535,2.535,0,0,0,199.658,34.488Z" transform="translate(-156.879 -33.746)"/></g></g></svg>